<?xml version="1.0" encoding="UTF-8" standalone="no"?>
<!DOCTYPE svg PUBLIC "-//W3C//DTD SVG 1.1//EN" "http://www.w3.org/Graphics/SVG/1.1/DTD/svg11.dtd">
<!-- Generated by Microsoft Visio, SVG Export compile.svg Page-1 -->
<svg xmlns="http://www.w3.org/2000/svg" xmlns:xlink="http://www.w3.org/1999/xlink" xmlns:ev="http://www.w3.org/2001/xml-events"
		xmlns:v="http://schemas.microsoft.com/visio/2003/SVGExtensions/" width="11in" height="4.5in" viewBox="0 0 792 324"
		xml:space="preserve" color-interpolation-filters="sRGB" class="st6">
	<v:documentProperties v:langID="1033" v:viewMarkup="false">
		<v:userDefs>
			<v:ud v:nameU="msvSubprocessMaster" v:prompt="" v:val="VT4(Rectangle)"/>
			<v:ud v:nameU="msvNoAutoConnect" v:val="VT0(1):26"/>
		</v:userDefs>
	</v:documentProperties>

	<style type="text/css">
	<![CDATA[
		.st1 {fill:#f15b2a;stroke:none;stroke-linecap:butt;stroke-width:0.75}
		.st2 {fill:none;stroke:none;stroke-width:0.25}
		.st3 {fill:#000000;font-family:Montserrat;font-size:1.5em}
		.st4 {fill:#f15b2a;stroke:#c7c8c8;stroke-width:0.25}
		.st5 {fill:#f15b2a;stroke:#90aadb;stroke-width:0.25}
		.st6 {fill:none;fill-rule:evenodd;font-size:12px;overflow:visible;stroke-linecap:square;stroke-miterlimit:3}
	]]>
	</style>

	<g v:mID="0" v:index="1" v:groupContext="foregroundPage">
		<v:userDefs>
			<v:ud v:nameU="msvThemeOrder" v:val="VT0(0):26"/>
		</v:userDefs>
		<title>Page-1</title>
		<v:pageProperties v:drawingScale="1" v:pageScale="1" v:drawingUnits="0" v:shadowOffsetX="9" v:shadowOffsetY="-9"/>
		<v:layer v:name="Web Site Map Shapes" v:index="0"/>
		<g id="shape1-1" v:mID="1" v:groupContext="shape" transform="translate(72,-81)">
			<title>Document</title>
			<v:userDefs>
				<v:ud v:nameU="msvShapeCategories" v:prompt="" v:val="VT4(Icon)"/>
				<v:ud v:nameU="visVersion" v:prompt="" v:val="VT0(15):26"/>
			</v:userDefs>
			<path d="M23.55 291.02 L23.55 286.31 L98.93 286.31 L98.93 291.02 L23.55 291.02 ZM23.55 272.18 L23.55 267.47 L98.93 267.47
						 L98.93 272.18 L23.55 272.18 ZM23.55 253.34 L23.55 248.62 L98.93 248.62 L98.93 253.34 L23.55 253.34 ZM23.55
						 234.49 L23.55 229.78 L98.93 229.78 L98.93 234.49 L23.55 234.49 ZM23.55 215.65 L23.55 210.94 L70.85 210.94
						 L70.85 215.65 L23.55 215.65 ZM113.06 314.58 L113.06 210.94 L84.8 210.94 L84.8 182.67 L9.42 182.67 L9.42
						 314.58 L113.06 314.58 ZM111.88 206.23 L89.51 183.85 L89.51 206.23 L111.88 206.23 ZM93.04 173.25 L122.48
						 202.69 L122.48 324 L0 324 L0 173.25 L93.04 173.25 Z" class="st1"/>
		</g>
		<g id="shape17-3" v:mID="17" v:groupContext="shape" transform="translate(570.234,-18.375)">
			<title>Sheet.17</title>
			<desc>Executable</desc>
			<v:textBlock v:margins="rect(4,4,4,4)"/>
			<v:textRect cx="56.25" cy="306" width="112.5" height="36"/>
			<rect x="0" y="288" width="112.5" height="36" class="st2"/>
			<text x="5.66" y="311.4" class="st3" v:langID="1033"><v:paragraph v:horizAlign="1"/><v:tabList/>Executable</text>		</g>
		<g id="shape18-6" v:mID="18" v:groupContext="shape" transform="translate(314.367,-18)">
			<title>Sheet.18</title>
			<desc>Compiler</desc>
			<v:textBlock v:margins="rect(4,4,4,4)"/>
			<v:textRect cx="51.1172" cy="306" width="102.24" height="36"/>
			<rect x="0" y="288" width="102.234" height="36" class="st2"/>
			<text x="9.38" y="311.4" class="st3" v:langID="1033"><v:paragraph v:horizAlign="1"/><v:tabList/>Compiler</text>		</g>
		<g id="shape19-9" v:mID="19" v:groupContext="shape" transform="translate(88.2422,-18)">
			<title>Sheet.19</title>
			<desc>Code</desc>
			<v:textBlock v:margins="rect(4,4,4,4)"/>
			<v:textRect cx="45" cy="306" width="90" height="36"/>
			<rect x="0" y="288" width="90" height="36" class="st2"/>
			<text x="20.9" y="311.4" class="st3" v:langID="1033"><v:paragraph v:horizAlign="1"/><v:tabList/>Code</text>		</g>
		<g id="shape20-12" v:mID="20" v:groupContext="shape" transform="translate(221.484,-123.75)">
			<title>Chevron</title>
			<v:userDefs>
				<v:ud v:nameU="visVersion" v:prompt="" v:val="VT0(15):26"/>
			</v:userDefs>
			<path d="M0 324 L23.63 324 L47.25 300.37 L23.63 276.75 L0 276.75 L23.63 300.37 L0 324 Z" class="st4"/>
		</g>
		<g id="shape21-14" v:mID="21" v:groupContext="shape" transform="translate(466.734,-123.75)">
			<title>Chevron.21</title>
			<v:userDefs>
				<v:ud v:nameU="visVersion" v:prompt="" v:val="VT0(15):26"/>
			</v:userDefs>
			<path d="M0 324 L23.63 324 L47.25 300.37 L23.63 276.75 L0 276.75 L23.63 300.37 L0 324 Z" class="st4"/>
		</g>
		<g id="shape24-16" v:mID="24" v:groupContext="shape" transform="translate(295.734,-77.625)">
			<title>Circular Arrow</title>
			<v:userDefs>
				<v:ud v:nameU="CtrlAng1" v:prompt="" v:val="VT0(2.8520890274286):32"/>
				<v:ud v:nameU="CtrlAng2" v:prompt="" v:val="VT0(2.471081301526):32"/>
				<v:ud v:nameU="InnerDist" v:prompt="" v:val="VT0(0.85773649799501):1"/>
				<v:ud v:nameU="MidAngle" v:prompt="" v:val="VT0(5.8031778180671):32"/>
				<v:ud v:nameU="visVersion" v:prompt="" v:val="VT0(17):26"/>
				<v:ud v:nameU="ArroOfsset" v:prompt="" v:val="VT0(0.13474558551735):1"/>
				<v:ud v:nameU="Row_8" v:prompt="" v:val="VT0(0.45476635112107):1"/>
				<v:ud v:nameU="Row_9" v:prompt="" v:val="VT0(2.5030231770297):32"/>
				<v:ud v:nameU="midCircleWidth" v:prompt="" v:val="VT0(0.20211837827603):1"/>
				<v:ud v:nameU="midCircleCenterX" v:prompt="" v:val="VT0(0.29675309516135):1"/>
				<v:ud v:nameU="midCircleCenterY" v:prompt="" v:val="VT0(1.615066554964):1"/>
				<v:ud v:nameU="midCircleCenterX2" v:prompt="" v:val="VT0(0.32816965991549):1"/>
				<v:ud v:nameU="midCircleCenterY2" v:prompt="" v:val="VT0(1.6778386357938):1"/>
				<v:ud v:nameU="MajorAngle" v:prompt="" v:val="VT0(2.8259090886487):32"/>
				<v:ud v:nameU="InnerDist" v:prompt="" v:val="VT0(0.63308984773221):1"/>
				<v:ud v:nameU="ArroOfsset" v:prompt="" v:val="VT0(0.099454858709143):1"/>
				<v:ud v:nameU="Row_8" v:prompt="" v:val="VT0(0.33566014814336):1"/>
				<v:ud v:nameU="midCircleWidth" v:prompt="" v:val="VT0(0.14918228806371):1"/>
				<v:ud v:nameU="midCircleCenterX" v:prompt="" v:val="VT0(0.21903157003219):1"/>
				<v:ud v:nameU="midCircleCenterY" v:prompt="" v:val="VT0(1.1920703406578):1"/>
				<v:ud v:nameU="midCircleCenterX2" v:prompt="" v:val="VT0(0.24221993643954):1"/>
				<v:ud v:nameU="midCircleCenterY2" v:prompt="" v:val="VT0(1.2384020138317):1"/>
			</v:userDefs>
			<path d="M26.06 241.24 L32.83 243.6 L22.37 219.08 L-3.36 230.37 L3.45 232.59 A69.5774 70.3794 -180 1 0 15.1 210.91 L34.04
						 225.93 A45.4688 45.9929 0 1 1 26.06 241.24 Z" class="st5"/>
		</g>
		<g id="shape25-18" v:mID="25" v:groupContext="shape" transform="translate(545.484,-81.375)">
			<title>Frame</title>
			<v:userDefs>
				<v:ud v:nameU="visVersion" v:prompt="" v:val="VT0(15):26"/>
			</v:userDefs>
			<path d="M0 324 L162 324 L162 204 L0 204 L0 324 ZM9 315 L153 315 L153 213 L9 213 L9 315 Z" class="st4"/>
		</g>
	</g>
</svg>
