<?xml version="1.0" encoding="UTF-8" standalone="no"?>
<!DOCTYPE svg PUBLIC "-//W3C//DTD SVG 1.1//EN" "http://www.w3.org/Graphics/SVG/1.1/DTD/svg11.dtd">
<!-- Generated by Microsoft Visio, SVG Export pipeline.svg Page-1 -->
<svg xmlns="http://www.w3.org/2000/svg" xmlns:xlink="http://www.w3.org/1999/xlink" xmlns:ev="http://www.w3.org/2001/xml-events"
		xmlns:v="http://schemas.microsoft.com/visio/2003/SVGExtensions/" width="5.75in" height="4.75in" viewBox="0 0 414 342"
		xml:space="preserve" color-interpolation-filters="sRGB" class="st10">
	<v:documentProperties v:langID="1033" v:viewMarkup="false">
		<v:userDefs>
			<v:ud v:nameU="msvSubprocessMaster" v:prompt="" v:val="VT4(Rectangle)"/>
			<v:ud v:nameU="msvNoAutoConnect" v:val="VT0(1):26"/>
		</v:userDefs>
	</v:documentProperties>

	<style type="text/css">
	<![CDATA[
		.st1 {fill:#f15b2a;stroke:#c7c8c8;stroke-width:0.25}
		.st2 {fill:none;stroke:none;stroke-width:0.25}
		.st3 {fill:#f15b2a;font-family:Montserrat;font-size:1.00001em}
		.st4 {fill:none}
		.st5 {stroke:#c84a21;stroke-linecap:round;stroke-linejoin:round;stroke-width:1}
		.st6 {fill:#feffff;font-family:Montserrat;font-size:1.00001em}
		.st7 {marker-end:url(#mrkr4-21);stroke:#f15b2a;stroke-linecap:round;stroke-linejoin:round;stroke-width:2}
		.st8 {fill:#f15b2a;fill-opacity:1;stroke:#f15b2a;stroke-opacity:1;stroke-width:0.44247787610619}
		.st9 {font-size:1em}
		.st10 {fill:none;fill-rule:evenodd;font-size:12px;overflow:visible;stroke-linecap:square;stroke-miterlimit:3}
	]]>
	</style>

	<defs id="Markers">
		<g id="lend4">
			<path d="M 2 1 L 0 0 L 2 -1 L 2 1 " style="stroke:none"/>
		</g>
		<marker id="mrkr4-21" class="st8" v:arrowType="4" v:arrowSize="2" v:setback="4.52" refX="-4.52" orient="auto"
				markerUnits="strokeWidth" overflow="visible">
			<use xlink:href="#lend4" transform="scale(-2.26,-2.26) "/>
		</marker>
	</defs>
	<g v:mID="0" v:index="1" v:groupContext="foregroundPage">
		<v:userDefs>
			<v:ud v:nameU="msvThemeOrder" v:val="VT0(0):26"/>
		</v:userDefs>
		<title>Page-1</title>
		<v:pageProperties v:drawingScale="1" v:pageScale="1" v:drawingUnits="0" v:shadowOffsetX="9" v:shadowOffsetY="-9"/>
		<v:layer v:name="Connector" v:index="0"/>
		<v:layer v:name="Common Icons" v:index="1"/>
		<g id="shape31-1" v:mID="31" v:groupContext="shape" transform="translate(18,-177.5)">
			<title>Frame</title>
			<v:userDefs>
				<v:ud v:nameU="visVersion" v:prompt="" v:val="VT0(15):26"/>
			</v:userDefs>
			<path d="M0 342 L378 342 L378 225 L0 225 L0 342 ZM9 333 L369 333 L369 234 L9 234 L9 333 Z" class="st1"/>
		</g>
		<g id="shape32-3" v:mID="32" v:groupContext="shape" transform="translate(131,-297)">
			<title>Sheet.32</title>
			<desc>CI/CD provider</desc>
			<v:textBlock v:margins="rect(4,4,4,4)"/>
			<v:textRect cx="76" cy="332" width="152.01" height="20"/>
			<rect x="0" y="322" width="152" height="20" class="st2"/>
			<text x="29.91" y="335.6" class="st3" v:langID="1033"><v:paragraph v:horizAlign="1"/><v:tabList/>CI/CD provider</text>		</g>
		<g id="shape47-6" v:mID="47" v:groupContext="shape" transform="translate(32.1531,-81.75)">
			<title>Script.15</title>
			<v:userDefs>
				<v:ud v:nameU="msvShapeCategories" v:prompt="" v:val="VT4(Icon)"/>
				<v:ud v:nameU="visVersion" v:prompt="" v:val="VT0(15):26"/>
			</v:userDefs>
			<path d="M58.76 342 L10.23 342 A25.0185 25.0185 -180 0 0 14.88 327.92 A55.4514 55.4514 -180 0 0 6.86 303.65 A46.6904
						 46.6904 0 0 1 0 284.21 A18.4636 18.4636 0 0 1 8.09 270 L56.62 270 A25.009 25.009 -180 0 0 51.97 284.08 A55.4074
						 55.4074 -180 0 0 59.99 308.35 A46.6689 46.6689 0 0 1 66.85 327.79 A18.452 18.452 0 0 1 58.76 342 Z"
					class="st4"/>
			<path d="M58.76 342 L10.23 342 A25.0185 25.0185 -180 0 0 14.88 327.92 A55.4514 55.4514 -180 0 0 6.86 303.65 A46.6904
						 46.6904 0 0 1 0 284.21 A18.4636 18.4636 0 0 1 8.09 270 L56.62 270 A25.009 25.009 -180 0 0 51.97 284.08 A55.4074
						 55.4074 -180 0 0 59.99 308.35 A46.6689 46.6689 0 0 1 66.85 327.79 A18.452 18.452 0 0 1 58.76 342"
					class="st5"/>
			<path d="M13.37 290.57 L43.45 290.57" class="st5"/>
			<path d="M16.71 300.86 L45.46 300.86" class="st5"/>
			<path d="M20.05 311.14 L48.8 311.14" class="st5"/>
			<path d="M23.4 321.43 L53.48 321.43" class="st5"/>
		</g>
		<g id="shape52-13" v:mID="52" v:groupContext="shape" transform="translate(95.1531,-213.718)">
			<title>Rectangle</title>
			<desc>Agent</desc>
			<v:userDefs>
				<v:ud v:nameU="visVersion" v:val="VT0(15):26"/>
			</v:userDefs>
			<v:textBlock v:margins="rect(4,4,4,4)"/>
			<v:textRect cx="33.4234" cy="319.718" width="66.85" height="44.5646"/>
			<rect x="0" y="297.435" width="66.8469" height="44.5646" class="st1"/>
			<text x="14.96" y="323.32" class="st6" v:langID="1033"><v:paragraph v:horizAlign="1"/><v:tabList/>Agent</text>		</g>
		<g id="shape53-16" v:mID="53" v:groupContext="shape" v:layerMember="0" transform="translate(77.691,-153.75)">
			<title>Dynamic connector</title>
			<path d="M0.54 342 L0.54 259.75 L8.42 259.75" class="st7"/>
		</g>
		<g id="shape55-22" v:mID="55" v:groupContext="shape" transform="translate(110.577,-38)">
			<title>Script.55</title>
			<v:userDefs>
				<v:ud v:nameU="msvShapeCategories" v:prompt="" v:val="VT4(Icon)"/>
				<v:ud v:nameU="visVersion" v:prompt="" v:val="VT0(15):26"/>
			</v:userDefs>
			<path d="M58.76 342 L10.23 342 A25.0185 25.0185 -180 0 0 14.88 327.92 A55.4514 55.4514 -180 0 0 6.86 303.65 A46.6904
						 46.6904 0 0 1 0 284.21 A18.4636 18.4636 0 0 1 8.09 270 L56.62 270 A25.009 25.009 -180 0 0 51.97 284.08 A55.4074
						 55.4074 -180 0 0 59.99 308.35 A46.6689 46.6689 0 0 1 66.85 327.79 A18.452 18.452 0 0 1 58.76 342 Z"
					class="st4"/>
			<path d="M58.76 342 L10.23 342 A25.0185 25.0185 -180 0 0 14.88 327.92 A55.4514 55.4514 -180 0 0 6.86 303.65 A46.6904
						 46.6904 0 0 1 0 284.21 A18.4636 18.4636 0 0 1 8.09 270 L56.62 270 A25.009 25.009 -180 0 0 51.97 284.08 A55.4074
						 55.4074 -180 0 0 59.99 308.35 A46.6689 46.6689 0 0 1 66.85 327.79 A18.452 18.452 0 0 1 58.76 342"
					class="st5"/>
			<path d="M13.37 290.57 L43.45 290.57" class="st5"/>
			<path d="M16.71 300.86 L45.46 300.86" class="st5"/>
			<path d="M20.05 311.14 L48.8 311.14" class="st5"/>
			<path d="M23.4 321.43 L53.48 321.43" class="st5"/>
		</g>
		<g id="shape56-29" v:mID="56" v:groupContext="shape" transform="translate(68,-18)">
			<title>Sheet.56</title>
			<desc>Source Code</desc>
			<v:textBlock v:margins="rect(4,4,4,4)"/>
			<v:textRect cx="76" cy="332" width="152" height="20"/>
			<rect x="0" y="322" width="152" height="20" class="st2"/>
			<text x="37.17" y="335.6" class="st3" v:langID="1033"><v:paragraph v:horizAlign="1"/><v:tabList/>Source Code</text>		</g>
		<g id="shape57-32" v:mID="57" v:groupContext="shape" v:layerMember="0" transform="translate(119.577,-110)">
			<title>Dynamic connector.57</title>
			<path d="M9 342 L9 247.32" class="st7"/>
		</g>
		<g id="shape58-37" v:mID="58" v:groupContext="shape" transform="translate(221.153,-213.718)">
			<title>Rectangle.58</title>
			<desc>Build Machine</desc>
			<v:userDefs>
				<v:ud v:nameU="visVersion" v:val="VT0(15):26"/>
			</v:userDefs>
			<v:textBlock v:margins="rect(4,4,4,4)"/>
			<v:textRect cx="33.4234" cy="319.718" width="66.85" height="44.5646"/>
			<rect x="0" y="297.435" width="66.8469" height="44.5646" class="st1"/>
			<text x="17.99" y="316.12" class="st6" v:langID="1033"><v:paragraph v:horizAlign="1"/><v:tabList/>Build <tspan x="7.44"
						dy="1.2em" class="st9">Machine</tspan></text>		</g>
		<g id="shape59-41" v:mID="59" v:groupContext="shape" v:layerMember="0" transform="translate(162,-227)">
			<title>Dynamic connector.59</title>
			<path d="M0 333 L50.11 333" class="st7"/>
		</g>
		<g id="shape60-46" v:mID="60" v:groupContext="shape" transform="translate(250.077,-60.0766)">
			<title>Rectangle.60</title>
			<desc>Build Package</desc>
			<v:userDefs>
				<v:ud v:nameU="visVersion" v:val="VT0(15):26"/>
			</v:userDefs>
			<v:textBlock v:margins="rect(4,4,4,4)"/>
			<v:textRect cx="46.9234" cy="310.718" width="93.85" height="62.5646"/>
			<rect x="0" y="279.435" width="93.8469" height="62.5646" class="st1"/>
			<text x="4.13" y="314.32" class="st6" v:langID="1033"><v:paragraph v:horizAlign="1"/><v:tabList/>Build Package</text>		</g>
		<g id="shape61-49" v:mID="61" v:groupContext="shape" v:layerMember="0" transform="translate(254.577,-213.718)">
			<title>Dynamic connector.61</title>
			<path d="M0 342 L0 355.5 L42.42 355.5 L42.42 424.04" class="st7"/>
		</g>
		<g id="shape65-54" v:mID="65" v:groupContext="shape" transform="translate(198,-38)">
			<title>Frame.65</title>
			<v:userDefs>
				<v:ud v:nameU="visVersion" v:prompt="" v:val="VT0(15):26"/>
			</v:userDefs>
			<path d="M0 342 L198 342 L198 235.28 L0 235.28 L0 342 ZM9 333 L189 333 L189 244.28 L9 244.28 L9 333 Z" class="st1"/>
		</g>
		<g id="shape66-56" v:mID="66" v:groupContext="shape" transform="translate(207,-18)">
			<title>Sheet.66</title>
			<desc>Application Environment</desc>
			<v:textBlock v:margins="rect(4,4,4,4)"/>
			<v:textRect cx="90" cy="332" width="180" height="20"/>
			<rect x="0" y="322" width="180" height="20" class="st2"/>
			<text x="14.41" y="335.6" class="st3" v:langID="1033"><v:paragraph v:horizAlign="1"/><v:tabList/>Application Environment</text>		</g>
		<g id="shape67-59" v:mID="67" v:groupContext="shape" transform="translate(-10.4234,-58)">
			<title>Sheet.67</title>
			<desc>Workflow Script</desc>
			<v:textBlock v:margins="rect(4,4,4,4)"/>
			<v:textRect cx="76" cy="332" width="152" height="20"/>
			<rect x="0" y="322" width="152" height="20" class="st2"/>
			<text x="27.14" y="335.6" class="st3" v:langID="1033"><v:paragraph v:horizAlign="1"/><v:tabList/>Workflow Script</text>		</g>
	</g>
</svg>
